<svg xmlns="http://www.w3.org/2000/svg" style="display:none">
  <!-- INICIO -->

  <symbol id="Inicio" viewBox="0 0 24 24">
  <path fill="currentColor" fill-rule="evenodd" d="m21.1 6.551l.03.024c.537.413.87 1.053.87 1.757v11.256A3.4 3.4 0 0 1 18.6 23H5.4A3.4 3.4 0 0 1    2 19.588V8.332c0-.704.333-1.344.87-1.757l.029-.023l7.79-5.132a2.195 2.195 0 0 1 2.581 0zM10 13v8H8v-8.2c0-.992.808-1.8 1.8-1.8h4.4c.992 0     1.8.808 1.8 1.8V21h-2v-8z" clip-rule="evenodd"/>
  </symbol>

  <symbol id="Colección" viewBox="0 0 48 48">
  <defs>
    <mask id="ipSMallBag0">
      <g fill="none" stroke-linejoin="round" stroke-width="4">
        <path fill="#fff" stroke="#fff" d="M6 12.6V41a2 2 0 0 0 2 2h32a2 2 0 0 0 2-2V12.6z"/>
        <path stroke="#fff" stroke-linecap="round" d="M42 12.6L36.333 5H11.667L6 12.6v0"/>
        <path stroke="#000" stroke-linecap="round" d="M31.555 19.2c0 4.198-3.382 7.6-7.555 7.6s-7.556-3.402-7.556-7.6"/>
      </g>
    </mask>
  </defs>
  <path fill="currentColor" d="M0 0h48v48H0z" mask="url(#ipSMallBag0)"/>
</symbol>

  <symbol id="Tienda" viewBox="0 0 26 26">
  <path fill="currentColor" d="M18 .188c-4.315 0-7.813 1.929-7.813 4.312S13.686 8.813 18 8.813c4.315 0 7.813-1.93 7.813-4.313S22.314.187 18   .187zm7.813 5.593c-.002 2.383-3.498 4.313-7.813 4.313c-4.303 0-7.793-1.909-7.813-4.281V7.5c0 1.018.652 1.95 1.72 2.688c1.08.294 2.042.702 2.843   1.218c.993.252 2.085.406 3.25.406c4.315 0 7.813-1.929 7.813-4.312zm0 3c0 2.383-3.498 4.313-7.813 4.313c-.525 0-1.035-.039-1.531-.094a4.35 4.35   0 0 1 .781 1.781c.249.014.495.031.75.031c4.315 0 7.813-1.929 7.813-4.312zM8 11.187c-4.315 0-7.813 1.93-7.813 4.313S3.686 19.813 8 19.813c4.315   0 7.813-1.93 7.813-4.313S12.314 11.187 8 11.187m17.813.594c-.002 2.383-3.498 4.313-7.813 4.313c-.251 0-.505-.018-.75-.032c-.011.075-.017.175  -.031.25c.05.151.093.3.093.47v1c.227.011.455.03.688.03c4.315 0 7.813-1.929 7.813-4.312zm0 3c-.002 2.383-3.498 4.313-7.813 4.313c-.251 0-.505  -.018-.75-.032c-.011.075-.017.175-.031.25c.05.15.093.3.093.47v1c.227.011.455.03.688.03c4.315 0 7.813-1.929 7.813-4.312zm-10 2c-.002 2.383-3.498   4.313-7.813 4.313c-4.303 0-7.793-1.909-7.813-4.282V18.5c0 2.383 3.497 4.313 7.813 4.313s7.813-1.93 7.813-4.313zm0 3c-.002 2.383-3.498 4.313-  7.813 4.313c-4.303 0-7.793-1.909-7.813-4.282V21.5c0 2.383 3.497 4.313 7.813 4.313s7.813-1.93 7.813-4.313z"/>
  </symbol>

</svg>